<mxfile host="app.diagrams.net" modified="2022-10-27T09:35:05.033Z" agent="5.0 (Windows NT 10.0; Win64; x64) AppleWebKit/537.36 (KHTML, like Gecko) Chrome/106.0.0.0 Safari/537.36" etag="llBzKbZniTrlTjBOFc5i" version="20.4.1" type="github">
  <diagram id="1b9RebD6VQjj0RV2ONf3" name="Page-1">
    <mxGraphModel dx="1038" dy="539" grid="0" gridSize="10" guides="1" tooltips="1" connect="1" arrows="1" fold="1" page="1" pageScale="1" pageWidth="827" pageHeight="1169" background="#FFFFFF" math="0" shadow="0">
      <root>
        <mxCell id="0" />
        <mxCell id="1" parent="0" />
        <mxCell id="NB3Hqat46p2spOTS6d-m-13" value="" style="edgeStyle=orthogonalEdgeStyle;rounded=0;orthogonalLoop=1;jettySize=auto;html=1;" parent="1" source="NB3Hqat46p2spOTS6d-m-4" target="NB3Hqat46p2spOTS6d-m-8" edge="1">
          <mxGeometry relative="1" as="geometry" />
        </mxCell>
        <mxCell id="NB3Hqat46p2spOTS6d-m-4" value="" style="ellipse;html=1;shape=startState;fillColor=#000000;strokeColor=#ff0000;" parent="1" vertex="1">
          <mxGeometry x="352" y="63" width="30" height="30" as="geometry" />
        </mxCell>
        <mxCell id="NB3Hqat46p2spOTS6d-m-10" value="" style="edgeStyle=orthogonalEdgeStyle;rounded=0;orthogonalLoop=1;jettySize=auto;html=1;" parent="1" source="NB3Hqat46p2spOTS6d-m-8" target="NB3Hqat46p2spOTS6d-m-9" edge="1">
          <mxGeometry relative="1" as="geometry" />
        </mxCell>
        <mxCell id="NB3Hqat46p2spOTS6d-m-8" value="Start" style="strokeWidth=2;html=1;shape=mxgraph.flowchart.terminator;whiteSpace=wrap;fillColor=#ffe6cc;strokeColor=#d79b00;" parent="1" vertex="1">
          <mxGeometry x="324" y="124" width="86" height="60" as="geometry" />
        </mxCell>
        <mxCell id="NB3Hqat46p2spOTS6d-m-24" style="edgeStyle=orthogonalEdgeStyle;rounded=0;orthogonalLoop=1;jettySize=auto;html=1;" parent="1" source="NB3Hqat46p2spOTS6d-m-9" target="NB3Hqat46p2spOTS6d-m-21" edge="1">
          <mxGeometry relative="1" as="geometry" />
        </mxCell>
        <mxCell id="NB3Hqat46p2spOTS6d-m-9" value="Request" style="strokeWidth=2;html=1;shape=mxgraph.flowchart.terminator;whiteSpace=wrap;fillColor=#ffe6cc;strokeColor=#d79b00;" parent="1" vertex="1">
          <mxGeometry x="320.5" y="225" width="92.5" height="60" as="geometry" />
        </mxCell>
        <mxCell id="NB3Hqat46p2spOTS6d-m-41" value="" style="edgeStyle=orthogonalEdgeStyle;rounded=0;orthogonalLoop=1;jettySize=auto;html=1;strokeColor=#000000;endArrow=classic;endFill=1;" parent="1" source="NB3Hqat46p2spOTS6d-m-21" target="NB3Hqat46p2spOTS6d-m-26" edge="1">
          <mxGeometry relative="1" as="geometry" />
        </mxCell>
        <mxCell id="NB3Hqat46p2spOTS6d-m-43" value="" style="edgeStyle=orthogonalEdgeStyle;rounded=0;orthogonalLoop=1;jettySize=auto;html=1;strokeColor=#000000;endArrow=classic;endFill=1;entryX=1;entryY=0.5;entryDx=0;entryDy=0;entryPerimeter=0;" parent="1" source="NB3Hqat46p2spOTS6d-m-21" target="NB3Hqat46p2spOTS6d-m-9" edge="1">
          <mxGeometry relative="1" as="geometry">
            <Array as="points">
              <mxPoint x="523" y="351" />
              <mxPoint x="523" y="255" />
            </Array>
          </mxGeometry>
        </mxCell>
        <mxCell id="NB3Hqat46p2spOTS6d-m-21" value="Check information" style="rhombus;whiteSpace=wrap;html=1;fillColor=#dae8fc;strokeColor=#6c8ebf;" parent="1" vertex="1">
          <mxGeometry x="296.25" y="316" width="141" height="70" as="geometry" />
        </mxCell>
        <mxCell id="NB3Hqat46p2spOTS6d-m-25" value="Invalid information" style="shape=note;size=20;whiteSpace=wrap;html=1;" parent="1" vertex="1">
          <mxGeometry x="535" y="258" width="70" height="84" as="geometry" />
        </mxCell>
        <mxCell id="D9-njwtmof78aq4h25T1-2" value="" style="edgeStyle=orthogonalEdgeStyle;rounded=0;orthogonalLoop=1;jettySize=auto;html=1;" edge="1" parent="1" source="NB3Hqat46p2spOTS6d-m-26" target="NB3Hqat46p2spOTS6d-m-31">
          <mxGeometry relative="1" as="geometry" />
        </mxCell>
        <mxCell id="NB3Hqat46p2spOTS6d-m-26" value="API" style="strokeWidth=2;html=1;shape=mxgraph.flowchart.terminator;whiteSpace=wrap;fillColor=#ffe6cc;strokeColor=#d79b00;" parent="1" vertex="1">
          <mxGeometry x="317" y="430" width="100" height="60" as="geometry" />
        </mxCell>
        <mxCell id="D9-njwtmof78aq4h25T1-4" value="" style="edgeStyle=orthogonalEdgeStyle;rounded=0;orthogonalLoop=1;jettySize=auto;html=1;" edge="1" parent="1" source="NB3Hqat46p2spOTS6d-m-31" target="NB3Hqat46p2spOTS6d-m-33">
          <mxGeometry relative="1" as="geometry" />
        </mxCell>
        <mxCell id="NB3Hqat46p2spOTS6d-m-31" value="STL generator" style="strokeWidth=2;html=1;shape=mxgraph.flowchart.terminator;whiteSpace=wrap;fillColor=#ffe6cc;strokeColor=#d79b00;" parent="1" vertex="1">
          <mxGeometry x="317" y="527" width="100" height="60" as="geometry" />
        </mxCell>
        <mxCell id="NB3Hqat46p2spOTS6d-m-33" value="" style="ellipse;html=1;shape=endState;fillColor=#000000;strokeColor=#ff0000;" parent="1" vertex="1">
          <mxGeometry x="351.75" y="617" width="30" height="30" as="geometry" />
        </mxCell>
        <mxCell id="NB3Hqat46p2spOTS6d-m-39" value="Yes" style="text;align=center;fontStyle=1;verticalAlign=middle;spacingLeft=3;spacingRight=3;strokeColor=none;rotatable=0;points=[[0,0.5],[1,0.5]];portConstraint=eastwest;fillColor=#FFFFFF;" parent="1" vertex="1">
          <mxGeometry x="377.25" y="388" width="60" height="20" as="geometry" />
        </mxCell>
        <mxCell id="NB3Hqat46p2spOTS6d-m-42" value="No" style="text;align=center;fontStyle=1;verticalAlign=middle;spacingLeft=3;spacingRight=3;strokeColor=none;rotatable=0;points=[[0,0.5],[1,0.5]];portConstraint=eastwest;fillColor=#FFFFFF;" parent="1" vertex="1">
          <mxGeometry x="437.25" y="326" width="54.75" height="20" as="geometry" />
        </mxCell>
        <mxCell id="NB3Hqat46p2spOTS6d-m-45" value="Initial" style="text;html=1;strokeColor=none;fillColor=none;align=center;verticalAlign=middle;whiteSpace=wrap;rounded=0;" parent="1" vertex="1">
          <mxGeometry x="336.75" y="29" width="60" height="30" as="geometry" />
        </mxCell>
        <mxCell id="NB3Hqat46p2spOTS6d-m-46" value="Finish" style="text;html=1;strokeColor=none;fillColor=none;align=center;verticalAlign=middle;whiteSpace=wrap;rounded=0;" parent="1" vertex="1">
          <mxGeometry x="337" y="979" width="60" height="30" as="geometry" />
        </mxCell>
      </root>
    </mxGraphModel>
  </diagram>
</mxfile>
